<?xml version="1.0" encoding="iso-8859-1"?>
<!-- Generator: Adobe Illustrator 18.1.1, SVG Export Plug-In . SVG Version: 6.00 Build 0)  -->
<svg xmlns="http://www.w3.org/2000/svg" xmlns:xlink="http://www.w3.org/1999/xlink" version="1.1" id="Capa_1" x="0px" y="0px" viewBox="0 0 40.378 40.378" style="enable-background:new 0 0 40.378 40.378;" xml:space="preserve" width="512px" height="512px">
<g>
	<path d="M38.153,36.712V3.865h-0.028c0.023-0.091,0.039-0.184,0.039-0.28C38.165,0.173,23.188,0,20.186,0   C17.185,0,2.213,0.173,2.213,3.585c0,0.096,0.016,0.189,0.039,0.28H2.213v33.015h0.012c0.256,3.327,14.985,3.498,17.96,3.498   c2.976,0,17.711-0.172,17.967-3.498h0.001v-0.006c0.002-0.027,0.011-0.053,0.011-0.081C38.165,36.765,38.155,36.74,38.153,36.712z    M36.353,35.012c-4.077-1.697-13.811-1.804-16.168-1.804c-2.358,0-12.104,0.108-16.172,1.809V5.362   c4.069,1.702,13.814,1.809,16.172,1.809c2.357,0,12.091-0.107,16.168-1.805V35.012z M20.186,1.8c8.562,0,14.451,0.989,15.937,1.786   c-1.485,0.797-7.375,1.786-15.937,1.786c-8.559,0-14.446-0.989-15.93-1.786C5.741,2.789,11.628,1.8,20.186,1.8z M20.186,38.578   c-8.558,0-14.445-0.988-15.93-1.785c1.484-0.797,7.371-1.786,15.93-1.786c8.563,0,14.453,0.989,15.937,1.786   C34.637,37.59,28.748,38.578,20.186,38.578z"/>
	<path d="M10.476,10.575c-0.497,0-0.9,0.403-0.9,0.9v17.932c0,0.497,0.403,0.9,0.9,0.9c0.497,0,0.9-0.403,0.9-0.9V11.475   C11.376,10.978,10.973,10.575,10.476,10.575z"/>
</g>
<g>
</g>
<g>
</g>
<g>
</g>
<g>
</g>
<g>
</g>
<g>
</g>
<g>
</g>
<g>
</g>
<g>
</g>
<g>
</g>
<g>
</g>
<g>
</g>
<g>
</g>
<g>
</g>
<g>
</g>
</svg>
